# xmcd
#
# Track frame offsets: 
#        150
#        7074
#        22255
#        33944
#        42753
#        51269
#        61756
#        78152
#        85305
#        94765
#        105703
#        117091
#        127649
#        146698
#
# Disc length: 2082 seconds
#
# Revision: 2
# Processed by: cddbd v1.5.2PL0 Copyright (c) Steve Scherf et al.
# Submitted via: ExactAudioCopy v0.99pb3
#
DISCID=ac08200e
DTITLE=Coffinshakers, The - We Are The Undead
DYEAR=1999
DGENRE=Country
TTITLE0=We Are The Undead
TTITLE1=Black Sunday
TTITLE2=Pale Man In Black
TTITLE3=You Don't Know
TTITLE4=No Time To Waste
TTITLE5=No Rest For The Wicked
TTITLE6=You Call It Graveyard (I Call It Home)
TTITLE7=Twins Of Evil
TTITLE8=Vampires Don't Cry
TTITLE9=The Night Side Of Life
TTITLE10=Lust For Blood
TTITLE11=At My Mercy
TTITLE12=Until The End
TTITLE13=Back From The Grave
EXTD=
EXTT0=
EXTT1=
EXTT2=
EXTT3=
EXTT4=
EXTT5=
EXTT6=
EXTT7=
EXTT8=
EXTT9=
EXTT10=
EXTT11=
EXTT12=
EXTT13=
PLAYORDER=
